<svg width="60" height="60" viewBox="0 0 60 60" fill="none" xmlns="http://www.w3.org/2000/svg">
<g clip-path="url(#clip0_926_851)">
<circle cx="30.1277" cy="30.1277" r="30.1277" fill="#FF7E7E"/>
<path d="M20.4507 18.3731C20.7236 18.3731 20.9945 18.4268 21.2466 18.5313C21.4987 18.6357 21.7275 18.7895 21.9204 18.9825L29.9995 27.0606L38.0786 18.9991L38.23 18.8623C38.3876 18.7328 38.5634 18.6263 38.7524 18.5479C39.0046 18.4433 39.2754 18.3897 39.5483 18.3897C39.8211 18.3897 40.0913 18.4434 40.3433 18.5479C40.5955 18.6525 40.8252 18.8058 41.0181 18.9991H41.0171C41.8127 19.7946 41.8127 21.1253 41.0171 21.9209L32.938 30L41.0171 38.0791C41.21 38.2721 41.3638 38.5009 41.4683 38.753C41.5727 39.0051 41.6265 39.276 41.6265 39.5489C41.6264 39.8216 41.5726 40.0918 41.4683 40.3438C41.3638 40.5959 41.2101 40.8246 41.0171 41.0176C40.8241 41.2106 40.5954 41.3643 40.3433 41.4688C40.0913 41.5731 39.8211 41.6269 39.5483 41.627C39.2754 41.627 39.0046 41.5732 38.7524 41.4688C38.5004 41.3643 38.2716 41.2105 38.0786 41.0176L29.9995 32.9385L21.9204 41.0176C21.7275 41.2105 21.4987 41.3643 21.2466 41.4688C20.9945 41.5732 20.7236 41.627 20.4507 41.627C20.1779 41.6269 19.9078 41.5731 19.6558 41.4688C19.4036 41.3643 19.1749 41.2106 18.9819 41.0176C18.789 40.8246 18.6352 40.5959 18.5308 40.3438C18.4264 40.0918 18.3726 39.8216 18.3726 39.5489C18.3726 39.276 18.4263 39.0051 18.5308 38.753C18.6352 38.5009 18.789 38.2721 18.9819 38.0791L27.0601 30L18.9819 21.9209C18.789 21.728 18.6352 21.4992 18.5308 21.2471C18.4263 20.995 18.3726 20.7241 18.3726 20.4512C18.3726 20.1785 18.4264 19.9083 18.5308 19.6563C18.6352 19.4042 18.789 19.1754 18.9819 18.9825C19.1749 18.7895 19.4036 18.6357 19.6558 18.5313C19.9078 18.4269 20.1779 18.3731 20.4507 18.3731Z" fill="white" stroke="white" stroke-width="0.753191"/>
</g>
<defs>
<clipPath id="clip0_926_851">
<rect width="60" height="60" fill="white"/>
</clipPath>
</defs>
</svg>
