<svg width="189" height="179" viewBox="0 0 189 179" fill="none" xmlns="http://www.w3.org/2000/svg">
<path fill-rule="evenodd" clip-rule="evenodd" d="M143.998 11H45.3127V22.5702H11V76.8412C11 97.8157 34.1638 115.076 56.8946 116.871C64.3567 124.951 77.4822 130.821 89.164 133.323V147.508C77.993 150.976 58.0383 159.123 56.8946 168H133.56C132.405 159.123 110.418 150.965 99.2246 147.508V133.323C110.951 130.821 124.665 124.951 132.138 116.871C154.858 115.076 177 97.8157 177 76.8412V22.5702H143.998V11ZM21.5381 32.8498H44.5131V79.6019C44.5131 88.8267 46.8673 97.6025 51.0092 105.503C33.8196 99.9704 21.5381 85.7181 21.5381 69.0417V32.8498ZM137.013 106.996C141.177 98.736 143.565 89.601 143.565 79.9386V33.1528H166.595V68.9071C166.595 86.3353 154.258 101.216 137.013 106.996Z" fill="#FFBCA2"/>
<path d="M80.4254 9.98266L92.6866 4L88.8104 9.98266H118L92.6866 27.9306L112.858 25.1387L87.1493 53.4566L108.507 47.0751V48.6705L65 73L89.9179 35.5087L73.306 33.9133L88.8104 9.98266H80.4254Z" fill="white"/>
</svg>
