<svg width="332" height="134" viewBox="0 0 332 134" fill="none" xmlns="http://www.w3.org/2000/svg">
<g filter="url(#filter0_d_936_820)">
<g clip-path="url(#clip0_936_820)">
<path d="M142.812 81.5536C140.773 82.5992 138.46 80.7667 138.872 78.4273L143.255 53.4484L124.651 35.7256C122.913 34.0674 123.816 31.0361 126.145 30.7087L152.011 27.0332L163.545 4.18255C164.585 2.12299 167.4 2.12299 168.44 4.18255L179.974 27.0332L205.84 30.7087C208.169 31.0361 209.072 34.0674 207.329 35.7256L188.73 53.4484L193.113 78.4273C193.525 80.7667 191.212 82.5992 189.173 81.5536L165.985 69.6398L142.806 81.5536H142.812Z" fill="#FFBCA2"/>
</g>
<g clip-path="url(#clip1_936_820)">
<path d="M213.229 100.368C211.374 101.159 209.457 99.4048 209.965 97.3761L215.38 75.7142L200.151 58.9845C198.729 57.4194 199.712 54.8139 201.778 54.6722L224.724 53.0647L236.284 33.7198C237.327 31.9762 239.799 32.1526 240.583 34.0264L249.281 54.8164L271.766 59.6647C273.791 60.0981 274.394 62.8167 272.759 64.1638L255.315 78.5629L257.6 100.774C257.815 102.854 255.669 104.319 253.944 103.273L234.326 91.3574L213.225 100.368L213.229 100.368Z" fill="#FFBCA2"/>
</g>
<g clip-path="url(#clip2_936_820)">
<path d="M270.788 115.254C269.214 115.743 267.802 114.158 268.383 112.551L274.578 95.3936L263.587 80.534C262.561 79.1441 263.576 77.1078 265.267 77.1639L284.05 77.7586L295.049 62.9932C296.041 61.6624 298.035 62.0106 298.518 63.5987L303.864 81.2172L321.738 87.0209C323.348 87.541 323.613 89.8007 322.173 90.7601L306.801 101.018L306.818 119.26C306.82 120.969 304.955 121.981 303.639 120.988L288.682 109.678L270.784 115.253L270.788 115.254Z" fill="#FFBCA2"/>
</g>
<g clip-path="url(#clip3_936_820)">
<path d="M118.341 100.368C120.197 101.159 122.113 99.4048 121.605 97.3761L116.191 75.7142L131.419 58.9845C132.841 57.4194 131.858 54.8139 129.793 54.6722L106.847 53.0647L95.2863 33.7198C94.2437 31.9762 91.7718 32.1526 90.9871 34.0264L82.2898 54.8164L59.8044 59.6647C57.7797 60.0981 57.1765 62.8167 58.8108 64.1638L76.2552 78.5629L73.9707 100.774C73.7555 102.854 75.9016 104.319 77.6263 103.273L97.2442 91.3574L118.346 100.368L118.341 100.368Z" fill="#FFBCA2"/>
</g>
<g clip-path="url(#clip4_936_820)">
<path d="M60.7816 115.254C62.3554 115.743 63.7677 114.158 63.1865 112.551L56.9911 95.3936L67.9824 80.534C69.0084 79.1441 67.9936 77.1078 66.3028 77.1639L47.5195 77.7586L36.5205 62.9932C35.5286 61.6624 33.534 62.0106 33.0516 63.5987L27.7052 81.2172L9.83107 87.0209C8.22131 87.541 7.95633 89.8007 9.39632 90.7601L24.768 101.018L24.7516 119.26C24.7491 120.969 26.6147 121.981 27.9299 120.988L42.8878 109.678L60.7853 115.253L60.7816 115.254Z" fill="#FFBCA2"/>
</g>
</g>
<defs>
<filter id="filter0_d_936_820" x="0.339844" y="0" width="330.89" height="133.43" filterUnits="userSpaceOnUse" color-interpolation-filters="sRGB">
<feFlood flood-opacity="0" result="BackgroundImageFix"/>
<feColorMatrix in="SourceAlpha" type="matrix" values="0 0 0 0 0 0 0 0 0 0 0 0 0 0 0 0 0 0 127 0" result="hardAlpha"/>
<feOffset dy="4"/>
<feGaussianBlur stdDeviation="2"/>
<feComposite in2="hardAlpha" operator="out"/>
<feColorMatrix type="matrix" values="0 0 0 0 0 0 0 0 0 0 0 0 0 0 0 0 0 0 0.25 0"/>
<feBlend mode="normal" in2="BackgroundImageFix" result="effect1_dropShadow_936_820"/>
<feBlend mode="normal" in="SourceGraphic" in2="effect1_dropShadow_936_820" result="shape"/>
</filter>
<clipPath id="clip0_936_820">
<rect width="84.495" height="84.495" fill="white" transform="translate(123.734)"/>
</clipPath>
<clipPath id="clip1_936_820">
<rect width="74.3923" height="74.3923" fill="white" transform="translate(201.584 27.5527) rotate(4.08015)"/>
</clipPath>
<clipPath id="clip2_936_820">
<rect width="60.7786" height="60.7786" fill="white" transform="translate(267.356 55.1054) rotate(9.90116)"/>
</clipPath>
<clipPath id="clip3_936_820">
<rect width="74.3923" height="74.3923" fill="white" transform="matrix(-0.997465 0.0711519 0.0711519 0.997465 129.986 27.5527)"/>
</clipPath>
<clipPath id="clip4_936_820">
<rect width="60.7786" height="60.7786" fill="white" transform="matrix(-0.985106 0.171949 0.171949 0.985106 64.2129 55.1054)"/>
</clipPath>
</defs>
</svg>
