<svg width="440" height="165" viewBox="0 0 440 165" fill="none" xmlns="http://www.w3.org/2000/svg">
<circle cx="82.1687" cy="82.1687" r="80.8434" stroke="white" stroke-width="2.6506"/>
<circle cx="164.337" cy="82.1687" r="80.8434" stroke="white" stroke-width="2.6506"/>
<path d="M109.757 112.651H93.0582L88.3825 98.6236H57.3228L52.6471 112.651H36.0596L63.3343 34.7229H82.371L109.757 112.651ZM72.9083 52.4236L62.2211 84.2626H83.5955L72.9083 52.4236ZM128.593 56.9879V66.5619C129.855 63.0737 132.007 60.439 135.05 58.6578C138.093 56.8024 141.581 55.8747 145.515 55.8747V71.9055C141.136 71.3118 137.202 72.2024 133.714 74.5773C130.3 76.8781 128.593 80.7002 128.593 86.0439V112.651H114.232V56.9879H128.593ZM184.851 56.9879V70.7923H172.272V93.948C172.272 95.8776 172.754 97.2877 173.719 98.1783C174.684 99.0689 176.094 99.5884 177.949 99.7369C179.805 99.8111 182.105 99.774 184.851 99.6255V112.651C175.129 113.764 168.19 112.873 164.033 109.979C159.952 107.01 157.911 101.667 157.911 93.948V70.7923H148.225V56.9879H157.911V45.7441L172.272 41.4024V56.9879H184.851ZM296.87 73.6867C296.87 83.706 293.679 92.4636 287.296 99.9595L295.311 108.309L284.402 117.994L275.941 109.2C269.929 112.539 263.398 114.209 256.348 114.209C245.215 114.209 235.678 110.313 227.737 102.52C219.87 94.653 215.936 85.0419 215.936 73.6867C215.936 62.3316 219.87 52.7576 227.737 44.9648C235.604 37.0978 245.141 33.1643 256.348 33.1643C267.554 33.1643 277.091 37.0978 284.958 44.9648C292.899 52.7576 296.87 62.3316 296.87 73.6867ZM256.348 99.1802C259.316 99.1802 262.211 98.6978 265.031 97.733L252.229 84.374L263.138 74.6887L276.831 88.9383C279.949 84.4853 281.507 79.4014 281.507 73.6867C281.507 66.2651 279.095 60.1422 274.271 55.3181C269.447 50.494 263.472 48.0819 256.348 48.0819C249.223 48.0819 243.248 50.494 238.424 55.3181C233.6 60.1422 231.188 66.2651 231.188 73.6867C231.188 81.0342 233.6 87.12 238.424 91.9441C243.248 96.7682 249.223 99.1802 256.348 99.1802ZM342.401 87.0458V56.9879H356.762V112.651H342.401V106.416C338.987 111.612 333.458 114.209 325.813 114.209C319.728 114.209 314.681 112.168 310.673 108.086C306.74 103.93 304.773 98.2896 304.773 91.1648V56.9879H319.134V89.3836C319.134 93.0202 320.099 95.8405 322.028 97.8443C324.032 99.8482 326.741 100.85 330.155 100.85C333.94 100.85 336.909 99.6998 339.061 97.399C341.288 95.0241 342.401 91.573 342.401 87.0458ZM374.616 50.3084C372.241 50.3084 370.163 49.4549 368.382 47.7479C366.675 45.9667 365.821 43.8887 365.821 41.5137C365.821 39.1388 366.675 37.0607 368.382 35.2795C370.163 33.4983 372.241 32.6077 374.616 32.6077C377.065 32.6077 379.143 33.4983 380.85 35.2795C382.632 37.0607 383.522 39.1388 383.522 41.5137C383.522 43.8887 382.632 45.9667 380.85 47.7479C379.143 49.4549 377.065 50.3084 374.616 50.3084ZM381.852 112.651H367.491V56.9879H381.852V112.651ZM433.652 66.5619L410.051 99.1802H434.765V112.651H390.792V103.077L414.281 70.4583H391.905V56.9879H433.652V66.5619Z" fill="white"/>
</svg>
